<svg xmlns="http://www.w3.org/2000/svg" width="400" height="250" viewBox="0 0 400 250"><rect width="100%" height="100%" fill="#DDDDDD"/><path fill="#999999" d="M108.78 100.625h7.56v40.49h-7.56v-17.7H89.76v17.7H82.2v-40.49h7.56v17.42h19.02zm30.66 33.07v-4.84q-3 .14-5.04.51-2.05.38-3.28.97t-1.76 1.37q-.54.79-.54 1.71 0 1.82 1.08 2.6 1.08.79 2.82.79 2.12 0 3.68-.77 1.55-.77 3.04-2.34m-14.62-15.09-1.23-2.21q4.95-4.54 11.93-4.54 2.52 0 4.5.83 1.99.82 3.36 2.29 1.38 1.47 2.09 3.52.71 2.04.71 4.48v18.14h-3.13q-.98 0-1.51-.29-.54-.3-.84-1.19l-.62-2.08q-1.09.98-2.13 1.73-1.03.74-2.15 1.24-1.12.51-2.4.77-1.27.27-2.81.27-1.82 0-3.36-.49t-2.66-1.47-1.74-2.44q-.61-1.45-.61-3.39 0-1.09.36-2.17.36-1.07 1.19-2.05t2.14-1.85q1.32-.87 3.24-1.51 1.91-.65 4.46-1.05 2.55-.41 5.83-.49v-1.68q0-2.89-1.24-4.27-1.23-1.39-3.55-1.39-1.68 0-2.79.39-1.1.39-1.94.88t-1.53.89q-.69.39-1.53.39-.72 0-1.23-.38-.5-.38-.81-.88m34.78 2.18v12.88q1.17 1.43 2.56 2.02 1.38.59 3.01.59 1.57 0 2.83-.59t2.14-1.79q.88-1.21 1.36-3.04.47-1.84.47-4.33 0-2.52-.4-4.27-.41-1.75-1.17-2.84-.75-1.09-1.83-1.6-1.08-.5-2.45-.5-2.16 0-3.67.91t-2.85 2.56m-.93-7.14.56 2.66q1.77-1.99 4.01-3.22t5.26-1.23q2.35 0 4.3.98 1.94.98 3.36 2.84 1.41 1.86 2.18 4.59t.77 6.26q0 3.22-.87 5.97-.86 2.74-2.47 4.76-1.61 2.01-3.9 3.15-2.28 1.13-5.11 1.13-2.4 0-4.11-.74t-3.05-2.06v11.76h-6.92v-38.11h4.23q1.34 0 1.76 1.26m32.73 7.14v12.88q1.18 1.43 2.57 2.02 1.38.59 3.01.59 1.56 0 2.82-.59t2.15-1.79q.88-1.21 1.35-3.04.48-1.84.48-4.33 0-2.52-.41-4.27-.4-1.75-1.16-2.84-.75-1.09-1.83-1.6-1.08-.5-2.45-.5-2.16 0-3.67.91t-2.86 2.56m-.92-7.14.56 2.66q1.76-1.99 4-3.22t5.27-1.23q2.35 0 4.3.98 1.94.98 3.36 2.84 1.41 1.86 2.18 4.59t.77 6.26q0 3.22-.87 5.97-.87 2.74-2.48 4.76-1.61 2.01-3.89 3.15-2.28 1.13-5.11 1.13-2.41 0-4.11-.74-1.71-.74-3.06-2.06v11.76h-6.91v-38.11h4.23q1.34 0 1.76 1.26m31.28 9.8h13.04q0-1.34-.37-2.53-.38-1.19-1.14-2.09-.75-.89-1.92-1.41-1.16-.52-2.7-.52-2.99 0-4.72 1.71-1.72 1.71-2.19 4.84m17.64 4.17h-17.78q.16 2.22.78 3.83t1.62 2.66q1.01 1.05 2.4 1.56 1.38.52 3.06.52t2.9-.39 2.13-.87q.91-.47 1.6-.87.68-.39 1.33-.39.86 0 1.28.65l1.99 2.52q-1.15 1.34-2.57 2.25-1.43.91-2.99 1.46-1.55.54-3.16.77-1.61.22-3.12.22-3 0-5.57-.99-2.58-1-4.48-2.94-1.91-1.95-3-4.82t-1.09-6.65q0-2.94.95-5.53t2.73-4.51 4.34-3.04 5.78-1.12q2.72 0 5.01.87 2.3.87 3.95 2.54 1.65 1.66 2.59 4.08.94 2.43.94 5.53 0 1.57-.34 2.12-.33.54-1.28.54m12.79-13.97.48 2.27q.87-.87 1.83-1.61.97-.74 2.05-1.26 1.07-.52 2.31-.81 1.23-.3 2.68-.3 2.36 0 4.18.8t3.03 2.24q1.22 1.44 1.85 3.45.63 2 .63 4.41v18.28h-6.91v-18.28q0-2.64-1.21-4.08-1.2-1.44-3.67-1.44-1.79 0-3.36.81-1.56.81-2.96 2.21v20.78h-6.92v-28.73h4.23q1.34 0 1.76 1.26m25.68-14.14h6.91v41.61h-6.91zm34.38 12.88h5.55l-15.66 36.63q-.3.72-.79 1.1t-1.5.38h-5.15l5.37-11.54-11.62-26.57h6.08q.81 0 1.27.39.46.4.69.9l6.1 14.9q.31.75.52 1.51.21.75.41 1.54.25-.79.5-1.56t.56-1.52l5.77-14.87q.22-.56.74-.92.52-.37 1.16-.37"/></svg>