<svg xmlns="http://www.w3.org/2000/svg" width="1200" height="600" viewBox="0 0 1200 600"><rect width="100%" height="100%" fill="#DDDDDD"/><path fill="#999999" d="M326.33 226.88h22.68v121.46h-22.68v-53.09h-57.04v53.09h-22.68V226.88h22.68v52.24h57.04zm91.98 99.2v-14.53q-8.99.42-15.12 1.55-6.13 1.14-9.83 2.9t-5.29 4.12q-1.6 2.35-1.6 5.12 0 5.46 3.24 7.81 3.23 2.35 8.44 2.35 6.38 0 11.04-2.31 4.67-2.31 9.12-7.01m-43.85-45.28-3.7-6.63q14.87-13.61 35.79-13.61 7.56 0 13.52 2.48 5.97 2.48 10.08 6.89 4.12 4.41 6.26 10.54t2.14 13.44v54.43h-9.41q-2.94 0-4.53-.88-1.6-.88-2.52-3.57l-1.85-6.22q-3.28 2.94-6.38 5.17-3.11 2.22-6.47 3.74-3.36 1.51-7.18 2.31-3.83.79-8.45.79-5.46 0-10.08-1.47t-7.98-4.41-5.2-7.3q-1.85-4.37-1.85-10.17 0-3.27 1.09-6.51 1.09-3.23 3.57-6.17t6.43-5.55q3.94-2.6 9.7-4.53 5.75-1.93 13.4-3.15 7.64-1.22 17.47-1.47v-5.04q0-8.65-3.7-12.81-3.69-4.16-10.67-4.16-5.04 0-8.35 1.18-3.32 1.17-5.84 2.64t-4.58 2.65q-2.06 1.17-4.58 1.17-2.18 0-3.69-1.13-1.52-1.13-2.44-2.65m104.33 6.56V326q3.53 4.28 7.68 6.04 4.16 1.77 9.03 1.77 4.71 0 8.49-1.77 3.78-1.76 6.42-5.37 2.65-3.61 4.08-9.12 1.43-5.5 1.43-12.97 0-7.56-1.22-12.81t-3.49-8.53-5.5-4.79-7.35-1.51q-6.47 0-11 2.73-4.54 2.73-8.57 7.69m-2.77-21.42 1.68 7.98q5.29-5.97 12.01-9.66 6.72-3.7 15.79-3.7 7.06 0 12.89 2.94 5.84 2.94 10.08 8.53 4.25 5.58 6.56 13.77t2.31 18.78q0 9.66-2.61 17.89-2.6 8.23-7.43 14.28t-11.68 9.45q-6.84 3.4-15.33 3.4-7.22 0-12.35-2.23-5.12-2.22-9.15-6.17v35.28h-20.75V262.16h12.68q4.04 0 5.3 3.78m98.19 21.42V326q3.53 4.28 7.69 6.04 4.16 1.77 9.03 1.77 4.7 0 8.48-1.77 3.78-1.76 6.43-5.37 2.64-3.61 4.07-9.12 1.43-5.5 1.43-12.97 0-7.56-1.22-12.81t-3.48-8.53q-2.27-3.28-5.51-4.79-3.23-1.51-7.35-1.51-6.46 0-11 2.73t-8.57 7.69m-2.77-21.42 1.68 7.98q5.29-5.97 12.01-9.66 6.72-3.7 15.79-3.7 7.06 0 12.9 2.94t10.08 8.53q4.24 5.58 6.55 13.77t2.31 18.78q0 9.66-2.6 17.89-2.61 8.23-7.44 14.28t-11.67 9.45q-6.85 3.4-15.33 3.4-7.23 0-12.35-2.23-5.13-2.22-9.16-6.17v35.28h-20.75V262.16h12.69q4.03 0 5.29 3.78m93.83 29.4h39.14q0-4.04-1.13-7.61-1.14-3.57-3.4-6.25-2.27-2.69-5.76-4.25-3.48-1.55-8.1-1.55-8.99 0-14.16 5.12-5.16 5.13-6.59 14.54m52.92 12.51h-53.34q.5 6.64 2.35 11.47t4.87 7.98q3.03 3.15 7.18 4.7 4.16 1.56 9.2 1.56t8.7-1.18q3.65-1.18 6.38-2.6 2.73-1.43 4.79-2.61 2.06-1.17 3.99-1.17 2.6 0 3.86 1.93l5.97 7.56q-3.45 4.03-7.73 6.76-4.29 2.73-8.95 4.37t-9.49 2.31-9.37.67q-8.98 0-16.71-2.98t-13.44-8.82-8.99-14.45-3.28-19.95q0-8.82 2.86-16.59t8.19-13.52q5.33-5.76 13.02-9.12t17.35-3.36q8.14 0 15.03 2.61 6.89 2.6 11.85 7.6 4.95 5 7.77 12.26 2.81 7.27 2.81 16.59 0 4.71-1.01 6.34-1.01 1.64-3.86 1.64m38.39-41.91 1.42 6.8q2.61-2.6 5.51-4.83 2.89-2.23 6.13-3.78 3.23-1.55 6.93-2.44 3.69-.88 8.06-.88 7.06 0 12.52 2.4 5.46 2.39 9.11 6.72 3.66 4.32 5.55 10.33 1.89 6 1.89 13.23v54.85h-20.75v-54.85q0-7.9-3.61-12.22-3.62-4.33-11.01-4.33-5.37 0-10.08 2.44-4.7 2.43-8.9 6.63v62.33H738.6v-86.18h12.68q4.04 0 5.3 3.78m77.02-42.42h20.75v124.82H833.6zm103.16 38.64h16.63l-46.96 109.87q-.92 2.18-2.39 3.32-1.47 1.13-4.5 1.13h-15.45l16.13-34.61-34.86-79.71h18.22q2.44 0 3.83 1.17 1.38 1.18 2.05 2.69l18.32 44.69q.92 2.27 1.55 4.53.63 2.27 1.22 4.62.75-2.35 1.51-4.66t1.68-4.58l17.3-44.6q.68-1.68 2.23-2.77t3.49-1.09"/></svg>